<svg id="Layer_2" data-name="Layer 2" xmlns="http://www.w3.org/2000/svg" viewBox="0 0 589.62 469.06">
  <defs>
    <style>
      .cls-1, .cls-2 {
        fill: none;
        stroke: #e9bc54;
        stroke-linecap: round;
        stroke-width: 3px;
      }

      .cls-1 {
        stroke-miterlimit: 10;
      }

      .cls-2 {
        stroke-linejoin: round;
      }

      .path {
        stroke-dasharray: 1400;
        stroke-dashoffset: -1400;
        animation: dash 12s ease infinite;
      }

      @keyframes dash {
        0% {
          stroke-dashoffset: -1400;
        }
        45% {
          stroke-dashoffset: 0;
        }
        55% {
          stroke-dashoffseet: 0;
        }
        100% {
          stroke-dashoffset: 1400;
        }
      }
    </style>
  </defs>
  <title>guacamaya-quetzal-prettier</title>
  <g>
    <g>
      <path class="cls-1 path dash" d="M409.76,177.54s-.47-3.5,1.73-4.85a13.83,13.83,0,0,1,4.4-1.53.55.55,0,0,0,0-1.08c-4.93-.83-12.84-2.8-18.82-7.28-9.33-7-13.93-20.13-13.93-30.43a42.11,42.11,0,0,1,11.94-29.43"/>
      <path class="cls-2 path dash" d="M420.14,72.75c1.65,2.44,5.65,9.47,2.05,15.72-4,6.94-16.37,11.79-25.3,0-4-5.31-1.93-12.06,3.13-11.48,3.46.4,4.26,6.17.82,7.67C397.71,86,387.32,86,382.68,85.9a1.81,1.81,0,0,0-1.55,2.81A10.06,10.06,0,0,0,385,92c2.35,1.25,8.79,2.11,8.79,2.11h0l1.41,9.86c.53,3.69-.43,11.2-1.53,17.83-.39,2.33-.79,4.55-1.15,6.46l0,.11a2.39,2.39,0,0,0,3.82,2.34l1-.75,1.06-.85a3.14,3.14,0,0,1,5.09,2.61l-.22,4.35-.23,4.6a2.53,2.53,0,0,0,4.45,1.78h0l.06-.06a3.73,3.73,0,0,1,6.39,1.37,12.91,12.91,0,0,0,.78,2.05c2,4,3.93,8.66,10.6,10.74"/>
      <path class="cls-2 path dash" d="M412.54,67.45a16,16,0,0,1,5.33-.91,15.63,15.63,0,0,1,7.21,1.73s0,.06,0,0,.21.11.32.15a10.51,10.51,0,0,1,1.14.75"/>
      <path class="cls-2 path dash" d="M407.13,63.2a15.8,15.8,0,0,1,7-3.38,9.61,9.61,0,0,1,5.21.08"/>
      <path class="cls-2 path dash" d="M395.36,65.54c2-3.29,5.93-8.41,11.93-9.74"/>
      <path class="cls-2 path dash" d="M388.93,80.1c-3.74-7-2.82-18.43,5.59-23.53"/>
      <path class="cls-2 path dash" d="M428.32,119.09s10.57,21.29,15.94,29.87c1.9,3,6.07,5.31,10.19,6.9a2.87,2.87,0,0,0,3.15-4.62c-2.66-3-5.21-6.26-6.16-8.93-5.46-15.38-8.69-26-12.66-34.07-2.75-5.62-7.63-10.18-14.24-10.18a15.18,15.18,0,0,0-15.05,15c-.16,6.9,11.59,21.15,19.64,32.46,7.77,10.92,41.13,28.94,24.54,155.1-5.38,40.88-23.23,84-42.63,116.05a2.76,2.76,0,0,1-4.81-2.69c15.56-30.61,32.41-69.25,37.45-101.12,3.63-23,7.15-61.89,4.82-94.42-1.34-18.69-3.72-33.77-9.39-45.6a2,2,0,0,0-3.78,1.26c2.43,13,6.81,32.79-.77,80.72-5.07,32.08-19.29,65.65-28.5,83.58-4,7.76-8.12,15.18-12.22,22.15a2.71,2.71,0,0,1-4.75-2.6c4-7.94,8.54-16.28,12.19-25.36,19.48-48.47,25.55-70.93,28-107.79,1.74-26.33-1.12-61.2-11.1-61.63"/>
    </g>
    <path class="cls-2 path dash" d="M466.06,189.67c16.67-.62,17.26-5.62,54.34-2.11s44.66-2,63.89-3.2"/>
    <path class="cls-2 path dash" d="M204,185.22c3.18,8,53.66,4.4,90.35,4.09,27.2-.23,40.51-7.53,58.63-4.14,14.58,2.72,65,5.73,66.17-3.39"/>
    <path class="cls-2 path dash" d="M5.21,194.15c41.14-7.63,71.16,5,114.76-1.18"/>
    <g>
      <path class="cls-2 path" d="M198.76,46.71c12.33,6.56,15.61,21.9,15.61,29.08a30.11,30.11,0,0,1-2.54,12.13,10.21,10.21,0,0,0,.09,8.5,39.25,39.25,0,0,1-11.5,48.09,8.89,8.89,0,0,0-3.3,8.87,39,39,0,0,1,.83,8.07c0,5.2-4.79,15.28-12.08,27.58-11.45,19.37-37.37,51.37-52.18,71.5-3.82,5.16-12.06.51-9.37-5.32,13.5-29.3,22-45.09,28-57.25,6.36-13-.23-36.47-1.11-38.8a2.3,2.3,0,0,0-4.46.82l-7.23,38.25c-.54,2.84-4.77,3-5.23.1a3.4,3.4,0,0,1,0-.45V114.15A79.76,79.76,0,0,1,150,66.49a4.14,4.14,0,0,1,5.69-.91l0,0a25.6,25.6,0,0,1,8.76,10.48,25.17,25.17,0,0,1,2.27,10.51V149.3a3.14,3.14,0,0,0,6.19.75c4.86-19.68,10.76-46.72,10.47-60.9a45.92,45.92,0,0,0-14.85-32.9,7.92,7.92,0,0,1-2.29-7.8,45.06,45.06,0,0,0,1.47-9.52A30.23,30.23,0,0,1,199.88,8.77c13.16.82,26,7.9,26.68,22.22"/>
      <path class="cls-2 path" d="M143.16,265.27s3.28,34.27,7.14,85.22c4,52.8-4.19,110,7.44,110,8.51,0,6.47-64.12,4.69-104.22-1.84-41.56-10.49-103.36-12.91-122.3a21.58,21.58,0,0,1,1.63-11.36l8.73-16.11a3.15,3.15,0,0,1,6,1.06c1.1,18.84,3,53.45,3.28,73.14.92,63.15-1,130.05,11.38,129.54,3.35-.14-.53-46.66-1.35-102.14-.52-35.7-1-77.6,1.28-110.3,5-69.89,21.69-127.51,22.05-128.47,3.7-9.85,5.91-15.49,12.41-15.12,4.12.24,8.22,6,10.15,9.05a1.26,1.26,0,0,0,2.21-.14c1.1-2.37,2.7-6.27,2.83-9.4a18.37,18.37,0,0,0-17.6-19.1c-5.61-.23-5.76,6.09-2.66,8.18,3.54,2.39,8.31,1.64,9.4-3.84,1.62-8.07-4.85-18.68-16-17.43-13.87,1.55-14.13,18.59-4.51,25.17"/>
    </g>
  </g>
</svg>
